<svg width="522" height="215" viewBox="0 0 522 215" fill="none" xmlns="http://www.w3.org/2000/svg">
<path d="M143.795 25.0907C144.596 27.4623 144.997 28.648 144.645 30.0672C144.371 31.1701 143.443 32.4636 142.486 33.0758C141.254 33.8636 139.745 33.8636 136.728 33.8636H125.818C125.455 31.2879 124.712 29 123.591 27C122.47 24.9697 121.03 23.2424 119.273 21.8182C117.515 20.3939 115.485 19.303 113.182 18.5455C110.909 17.7879 108.439 17.4091 105.773 17.4091C100.955 17.4091 96.7576 18.6061 93.1818 21C89.6061 23.3636 86.8333 26.8182 84.8636 31.3636C82.8939 35.8788 81.9091 41.3636 81.9091 47.8182C81.9091 54.4545 82.8939 60.0303 84.8636 64.5455C86.8636 69.0606 89.6515 72.4697 93.2273 74.7727C96.803 77.0758 100.939 78.2273 105.636 78.2273C108.273 78.2273 110.712 77.8788 112.955 77.1818C115.227 76.4849 117.242 75.4697 119 74.1364C120.758 72.7727 122.212 71.1212 123.364 69.1818C124.545 67.2424 125.364 65.0303 125.818 62.5455L136.746 62.5954C139.674 62.6087 141.138 62.6154 142.385 63.4435C143.33 64.0714 144.274 65.4613 144.51 66.5716C144.82 68.0357 144.392 69.1308 143.535 71.321C143.05 72.5615 142.493 73.7878 141.864 75C139.833 78.9394 137.091 82.4697 133.636 85.5909C130.212 88.6818 126.121 91.1364 121.364 92.9546C116.636 94.7424 111.288 95.6364 105.318 95.6364C97.0152 95.6364 89.5909 93.7576 83.0455 90C76.5303 86.2424 71.3788 80.803 67.5909 73.6818C63.8333 66.5606 61.9545 57.9394 61.9545 47.8182C61.9545 37.6667 63.8636 29.0303 67.6818 21.9091C71.5 14.7879 76.6818 9.36364 83.2273 5.63637C89.7727 1.87879 97.1364 0 105.318 0C110.712 0 115.712 0.757576 120.318 2.27273C124.955 3.78788 129.061 6 132.636 8.90909C136.212 11.7879 139.121 15.3182 141.364 19.5C142.318 21.2566 143.129 23.1202 143.795 25.0907Z" fill="#3B3F3C"/>
<path d="M245.386 47.8182C245.386 57.9697 243.462 66.6061 239.614 73.7273C235.795 80.8485 230.583 86.2879 223.977 90.0455C217.401 93.7727 210.008 95.6364 201.795 95.6364C193.523 95.6364 186.098 93.7576 179.523 90C172.947 86.2424 167.75 80.803 163.932 73.6818C160.114 66.5606 158.205 57.9394 158.205 47.8182C158.205 37.6667 160.114 29.0303 163.932 21.9091C167.75 14.7879 172.947 9.36364 179.523 5.63637C186.098 1.87879 193.523 0 201.795 0C210.008 0 217.401 1.87879 223.977 5.63637C230.583 9.36364 235.795 14.7879 239.614 21.9091C243.462 29.0303 245.386 37.6667 245.386 47.8182ZM225.432 47.8182C225.432 41.2424 224.447 35.697 222.477 31.1818C220.538 26.6667 217.795 23.2424 214.25 20.9091C210.705 18.5758 206.553 17.4091 201.795 17.4091C197.038 17.4091 192.886 18.5758 189.341 20.9091C185.795 23.2424 183.038 26.6667 181.068 31.1818C179.129 35.697 178.159 41.2424 178.159 47.8182C178.159 54.3939 179.129 59.9394 181.068 64.4546C183.038 68.9697 185.795 72.3939 189.341 74.7273C192.886 77.0606 197.038 78.2273 201.795 78.2273C206.553 78.2273 210.705 77.0606 214.25 74.7273C217.795 72.3939 220.538 68.9697 222.477 64.4546C224.447 59.9394 225.432 54.3939 225.432 47.8182Z" fill="#3B3F3C"/>
<path d="M292.966 94.3636H267.966C265.166 94.3636 263.765 94.3636 262.696 93.8187C261.755 93.3393 260.99 92.5744 260.511 91.6336C259.966 90.564 259.966 89.1639 259.966 86.3636V9.27273C259.966 6.47247 259.966 5.07233 260.511 4.00278C260.99 3.06197 261.755 2.29706 262.696 1.8177C263.765 1.27273 265.166 1.27273 267.966 1.27273H293.239C302.602 1.27273 310.663 3.13637 317.42 6.86364C324.178 10.5606 329.375 15.8788 333.011 22.8182C336.678 29.7576 338.511 38.0606 338.511 47.7273C338.511 57.4242 336.678 65.7576 333.011 72.7273C329.375 79.697 324.148 85.0455 317.33 88.7727C310.542 92.5 302.42 94.3636 292.966 94.3636ZM279.648 77.5H292.148C297.966 77.5 302.86 76.4697 306.83 74.4091C310.83 72.3182 313.83 69.0909 315.83 64.7273C317.86 60.3333 318.875 54.6667 318.875 47.7273C318.875 40.8485 317.86 35.2273 315.83 30.8636C313.83 26.5 310.845 23.2879 306.875 21.2273C302.905 19.1667 298.011 18.1364 292.193 18.1364H279.648V77.5Z" fill="#3B3F3C"/>
<path d="M361.091 94.3636C358.291 94.3636 356.89 94.3636 355.821 93.8187C354.88 93.3393 354.115 92.5744 353.636 91.6336C353.091 90.564 353.091 89.1639 353.091 86.3636V9.27273C353.091 6.47247 353.091 5.07233 353.636 4.00278C354.115 3.06197 354.88 2.29706 355.821 1.8177C356.89 1.27273 358.291 1.27273 361.091 1.27273H407.818C410.618 1.27273 412.019 1.27273 413.088 1.8177C414.029 2.29706 414.794 3.06197 415.273 4.00278C415.818 5.07233 415.818 6.47247 415.818 9.27273V17.5H372.773V39.6818H412.591V55.9091H372.773V78.1364H416V86.3636C416 89.1639 416 90.564 415.455 91.6336C414.976 92.5744 414.211 93.3393 413.27 93.8187C412.2 94.3636 410.8 94.3636 408 94.3636H361.091Z" fill="#3B3F3C"/>
<path d="M0 119.546C0 116.746 0 115.346 0.544967 114.276C1.02433 113.335 1.78924 112.57 2.73005 112.091C3.79961 111.546 5.19974 111.546 8 111.546H24.2727L49.9091 174.091H51L76.6364 111.546H92.9091C95.7093 111.546 97.1095 111.546 98.179 112.091C99.1199 112.57 99.8848 113.335 100.364 114.276C100.909 115.346 100.909 116.746 100.909 119.546V196.637C100.909 199.437 100.909 200.837 100.364 201.907C99.8848 202.848 99.1199 203.613 98.179 204.092C97.1095 204.637 95.7094 204.637 92.9091 204.637H81.8182V144.046H81.0455L56.9545 204.182H43.9545L19.8636 143.819H19.0909V204.637H8C5.19974 204.637 3.79961 204.637 2.73005 204.092C1.78924 203.613 1.02433 202.848 0.544967 201.907C0 200.837 0 199.437 0 196.637V119.546Z" fill="#3B3F3C"/>
<path d="M133.17 204.637H123.305C119.52 204.637 117.628 204.637 116.393 203.844C115.312 203.15 114.54 202.066 114.237 200.818C113.89 199.393 114.507 197.604 115.742 194.026L142.355 116.935C143.025 114.996 143.36 114.026 143.968 113.31C144.505 112.677 145.191 112.188 145.964 111.887C146.84 111.546 147.866 111.546 149.917 111.546H163.875C165.928 111.546 166.954 111.546 167.83 111.887C168.604 112.189 169.29 112.678 169.827 113.311C170.435 114.028 170.77 114.998 171.439 116.939L198.014 194.03C199.247 197.606 199.863 199.394 199.516 200.82C199.212 202.068 198.44 203.15 197.36 203.844C196.125 204.637 194.234 204.637 190.451 204.637H180.58L168.92 168.728L157.374 133.165C157.307 132.958 157.115 132.819 156.898 132.819V132.819C156.681 132.819 156.489 132.958 156.422 133.164L133.17 204.637ZM131.852 168.046H181.67V183.41H131.852V168.046Z" fill="#3B3F3C"/>
<path d="M282.739 111.546C285.539 111.546 286.939 111.546 288.009 112.091C288.949 112.57 289.714 113.335 290.194 114.276C290.739 115.346 290.739 116.746 290.739 119.546V196.637C290.739 199.437 290.739 200.837 290.194 201.907C289.714 202.848 288.949 203.613 288.009 204.092C286.939 204.637 285.539 204.637 282.739 204.637H273.739L233.239 146.046H232.557V204.637H220.875C218.075 204.637 216.675 204.637 215.605 204.092C214.664 203.613 213.899 202.848 213.42 201.907C212.875 200.837 212.875 199.437 212.875 196.637V119.546C212.875 116.746 212.875 115.346 213.42 114.276C213.899 113.335 214.664 112.57 215.605 112.091C216.675 111.546 218.075 111.546 220.875 111.546H230.148L270.33 170.091H271.148V111.546H282.739Z" fill="#3B3F3C"/>
<path d="M368.727 141.637C368.091 139.425 367.197 137.47 366.045 135.773C364.894 134.046 363.485 132.591 361.818 131.41C360.182 130.198 358.303 129.273 356.182 128.637C354.091 128.001 351.773 127.682 349.227 127.682C344.47 127.682 340.288 128.864 336.682 131.228C333.106 133.591 330.318 137.031 328.318 141.546C326.318 146.031 325.318 151.516 325.318 158.001C325.318 164.485 326.303 170.001 328.273 174.546C330.242 179.092 333.03 182.561 336.636 184.955C340.242 187.319 344.5 188.501 349.409 188.501C353.864 188.501 357.667 187.713 360.818 186.137C364 184.531 366.424 182.273 368.091 179.364C369.788 176.455 370.909 173.607 370.909 169.637H365.909H350.636V162.819C350.636 160.019 350.636 158.618 351.181 157.549C351.661 156.608 352.426 155.843 353.366 155.364C354.436 154.819 355.836 154.819 358.636 154.819H381.591C384.391 154.819 385.791 154.819 386.861 155.364C387.802 155.843 388.567 156.608 389.046 157.549C389.591 158.618 389.591 160.019 389.591 162.819V166.546C389.591 174.728 387.864 181.758 384.409 187.637C380.955 193.485 376.197 198.001 370.136 201.182C364.076 204.334 357.136 205.91 349.318 205.91C340.591 205.91 332.924 203.985 326.318 200.137C319.712 196.258 314.561 190.758 310.864 183.637C307.197 176.485 305.364 168.001 305.364 158.182C305.364 150.637 306.455 143.91 308.636 138.001C310.848 132.061 313.939 127.031 317.909 122.91C321.879 118.788 326.5 115.652 331.773 113.501C337.045 111.349 342.758 110.273 348.909 110.273C354.182 110.273 359.091 111.046 363.636 112.591C368.182 114.107 372.212 116.258 375.727 119.046C379.273 121.834 382.167 125.152 384.409 129.001C385.13 130.228 385.767 131.495 386.322 132.804C387.251 134.993 387.715 136.088 387.426 137.584C387.208 138.713 386.259 140.146 385.305 140.787C384.04 141.637 382.542 141.637 379.546 141.637H368.727Z" fill="#3B3F3C"/>
<path fill-rule="evenodd" clip-rule="evenodd" d="M452.262 100.554C454.027 98.0098 456.185 95.7924 458.984 94.0818C466.231 89.6514 477.153 89.6652 485.091 92.0293C491.45 93.9208 498.391 97.5425 503.803 101.803C498.379 105.365 490.352 108.229 481.505 110.692C474.744 112.575 468.196 112.912 461.435 111.117L461.784 111.398L461.501 111.27C457.816 109.727 454.214 108.156 450.903 106.444L452.228 100.65L452.262 100.554Z" fill="url(#paint0_linear_1_25)"/>
<path fill-rule="evenodd" clip-rule="evenodd" d="M452.162 100.709L452.262 100.554L452.236 100.638L450.912 106.431C448.889 105.387 446.848 104.158 444.952 103.187L447.355 93.9306C447.792 92.2375 449.518 91.2232 451.211 91.6601C452.905 92.0969 453.919 93.8233 453.482 95.5165L452.162 100.709Z" fill="url(#paint1_linear_1_25)"/>
<path fill-rule="evenodd" clip-rule="evenodd" d="M463.655 117.795C461.527 115.585 459.088 113.587 456.307 111.806C453.58 110.069 450.498 108.541 447.046 107.259C437.542 105.931 429.503 106.721 422.732 109.283C415.519 112.006 409.732 116.779 405.195 123.127C396.72 134.996 397.86 142.905 399.271 152.699C399.853 156.762 400.488 161.125 400.582 166.225C400.696 171.888 400.091 177.049 398.932 181.641C397.686 186.506 395.817 190.739 393.498 194.224C391.716 198.038 391.369 200.978 392.537 203.005C392.554 203.035 392.572 203.064 392.589 203.094C393.834 205.171 396.819 206.608 401.616 207.379C401.674 207.389 401.731 207.399 401.8 207.406C417.515 209.936 432.609 206.978 445.013 199.655C457.338 192.381 466.977 180.762 471.906 165.877C474.866 156.934 475.946 147.672 474.434 139.01C473.084 131.313 469.667 124.026 463.655 117.795Z" fill="url(#paint2_linear_1_25)"/>
<defs>
<linearGradient id="paint0_linear_1_25" x1="466.5" y1="92" x2="472" y2="106" gradientUnits="userSpaceOnUse">
<stop stop-color="#75B915"/>
<stop offset="1" stop-color="#5E990B"/>
</linearGradient>
<linearGradient id="paint1_linear_1_25" x1="449" y1="91" x2="449" y2="101.5" gradientUnits="userSpaceOnUse">
<stop stop-color="#9D7153"/>
<stop offset="1" stop-color="#7F573C"/>
</linearGradient>
<linearGradient id="paint2_linear_1_25" x1="420.175" y1="109.386" x2="441.5" y2="201" gradientUnits="userSpaceOnUse">
<stop stop-color="#FFA712"/>
<stop offset="1" stop-color="#FF6712"/>
</linearGradient>
</defs>
</svg>
