<svg width="522" height="215" viewBox="0 0 522 215" fill="none" xmlns="http://www.w3.org/2000/svg">
<path d="M145.727 33.8636H125.818C125.455 31.2879 124.712 29 123.591 27C122.47 24.9697 121.03 23.2424 119.273 21.8182C117.515 20.3939 115.485 19.303 113.182 18.5455C110.909 17.7879 108.439 17.4091 105.773 17.4091C100.955 17.4091 96.7576 18.6061 93.1818 21C89.6061 23.3636 86.8333 26.8182 84.8636 31.3636C82.8939 35.8788 81.9091 41.3636 81.9091 47.8182C81.9091 54.4545 82.8939 60.0303 84.8636 64.5455C86.8636 69.0606 89.6515 72.4697 93.2273 74.7727C96.803 77.0758 100.939 78.2273 105.636 78.2273C108.273 78.2273 110.712 77.8788 112.955 77.1818C115.227 76.4849 117.242 75.4697 119 74.1364C120.758 72.7727 122.212 71.1212 123.364 69.1818C124.545 67.2424 125.364 65.0303 125.818 62.5455L145.727 62.6364C145.212 66.9091 143.924 71.0303 141.864 75C139.833 78.9394 137.091 82.4697 133.636 85.5909C130.212 88.6818 126.121 91.1364 121.364 92.9546C116.636 94.7424 111.288 95.6364 105.318 95.6364C97.0152 95.6364 89.5909 93.7576 83.0455 90C76.5303 86.2424 71.3788 80.803 67.5909 73.6818C63.8333 66.5606 61.9545 57.9394 61.9545 47.8182C61.9545 37.6667 63.8636 29.0303 67.6818 21.9091C71.5 14.7879 76.6818 9.36364 83.2273 5.63637C89.7727 1.87879 97.1364 0 105.318 0C110.712 0 115.712 0.757576 120.318 2.27273C124.955 3.78788 129.061 6 132.636 8.90909C136.212 11.7879 139.121 15.3182 141.364 19.5C143.636 23.6818 145.091 28.4697 145.727 33.8636Z" fill="#4F4F4F"/>
<path d="M245.386 47.8182C245.386 57.9697 243.462 66.6061 239.614 73.7273C235.795 80.8485 230.583 86.2879 223.977 90.0455C217.401 93.7727 210.008 95.6364 201.795 95.6364C193.523 95.6364 186.098 93.7576 179.523 90C172.947 86.2424 167.75 80.803 163.932 73.6818C160.114 66.5606 158.205 57.9394 158.205 47.8182C158.205 37.6667 160.114 29.0303 163.932 21.9091C167.75 14.7879 172.947 9.36364 179.523 5.63637C186.098 1.87879 193.523 0 201.795 0C210.008 0 217.401 1.87879 223.977 5.63637C230.583 9.36364 235.795 14.7879 239.614 21.9091C243.462 29.0303 245.386 37.6667 245.386 47.8182ZM225.432 47.8182C225.432 41.2424 224.447 35.697 222.477 31.1818C220.538 26.6667 217.795 23.2424 214.25 20.9091C210.705 18.5758 206.553 17.4091 201.795 17.4091C197.038 17.4091 192.886 18.5758 189.341 20.9091C185.795 23.2424 183.038 26.6667 181.068 31.1818C179.129 35.697 178.159 41.2424 178.159 47.8182C178.159 54.3939 179.129 59.9394 181.068 64.4546C183.038 68.9697 185.795 72.3939 189.341 74.7273C192.886 77.0606 197.038 78.2273 201.795 78.2273C206.553 78.2273 210.705 77.0606 214.25 74.7273C217.795 72.3939 220.538 68.9697 222.477 64.4546C224.447 59.9394 225.432 54.3939 225.432 47.8182Z" fill="#4F4F4F"/>
<path d="M292.966 94.3636H259.966V1.27273H293.239C302.602 1.27273 310.663 3.13637 317.42 6.86364C324.178 10.5606 329.375 15.8788 333.011 22.8182C336.678 29.7576 338.511 38.0606 338.511 47.7273C338.511 57.4242 336.678 65.7576 333.011 72.7273C329.375 79.697 324.148 85.0455 317.33 88.7727C310.542 92.5 302.42 94.3636 292.966 94.3636ZM279.648 77.5H292.148C297.966 77.5 302.86 76.4697 306.83 74.4091C310.83 72.3182 313.83 69.0909 315.83 64.7273C317.86 60.3333 318.875 54.6667 318.875 47.7273C318.875 40.8485 317.86 35.2273 315.83 30.8636C313.83 26.5 310.845 23.2879 306.875 21.2273C302.905 19.1667 298.011 18.1364 292.193 18.1364H279.648V77.5Z" fill="#4F4F4F"/>
<path d="M353.091 94.3636V1.27273H415.818V17.5H372.773V39.6818H412.591V55.9091H372.773V78.1364H416V94.3636H353.091Z" fill="#4F4F4F"/>
<path d="M0 111.546H24.2727L49.9091 174.091H51L76.6364 111.546H100.909V204.637H81.8182V144.046H81.0455L56.9545 204.182H43.9545L19.8636 143.819H19.0909V204.637H0V111.546Z" fill="#4F4F4F"/>
<path d="M133.17 204.637H121.06C118.032 204.637 116.518 204.637 115.53 204.003C114.666 203.447 114.048 202.581 113.805 201.582C113.528 200.441 114.022 199.01 115.01 196.149L142.727 115.858C143.263 114.306 143.531 113.53 144.017 112.957C144.447 112.451 144.996 112.06 145.615 111.819C146.315 111.546 147.136 111.546 148.777 111.546H165.016C166.658 111.546 167.479 111.546 168.18 111.819C168.799 112.06 169.348 112.452 169.777 112.958C170.264 113.531 170.532 114.308 171.067 115.86L198.745 196.151C199.732 199.012 200.225 200.443 199.947 201.583C199.704 202.581 199.086 203.448 198.222 204.003C197.234 204.637 195.721 204.637 192.695 204.637H180.58L157.261 132.819H156.534L133.17 204.637ZM131.852 168.046H181.67V183.41H131.852V168.046Z" fill="#4F4F4F"/>
<path d="M284.339 111.546C286.579 111.546 287.699 111.546 288.555 111.982C289.307 112.366 289.919 112.977 290.303 113.73C290.739 114.586 290.739 115.706 290.739 117.946V198.237C290.739 200.477 290.739 201.597 290.303 202.453C289.919 203.206 289.307 203.818 288.555 204.201C287.699 204.637 286.579 204.637 284.339 204.637H273.739L233.239 146.046H232.557V204.637H219.275C217.035 204.637 215.915 204.637 215.059 204.201C214.306 203.818 213.694 203.206 213.311 202.453C212.875 201.597 212.875 200.477 212.875 198.237V117.946C212.875 115.706 212.875 114.586 213.311 113.73C213.694 112.977 214.306 112.366 215.059 111.982C215.915 111.546 217.035 111.546 219.275 111.546H230.148L270.33 170.091H271.148V111.546H284.339Z" fill="#4F4F4F"/>
<path d="M368.727 141.637C368.091 139.425 367.197 137.47 366.045 135.773C364.894 134.046 363.485 132.591 361.818 131.41C360.182 130.198 358.303 129.273 356.182 128.637C354.091 128.001 351.773 127.682 349.227 127.682C344.47 127.682 340.288 128.864 336.682 131.228C333.106 133.591 330.318 137.031 328.318 141.546C326.318 146.031 325.318 151.516 325.318 158.001C325.318 164.485 326.303 170.001 328.273 174.546C330.242 179.092 333.03 182.561 336.636 184.955C340.242 187.319 344.5 188.501 349.409 188.501C353.864 188.501 357.667 187.713 360.818 186.137C364 184.531 366.424 182.273 368.091 179.364C369.788 176.455 370.909 173.607 370.909 169.637H365.909H353.836C352.716 169.637 352.156 169.637 351.728 169.419C351.352 169.227 351.046 168.921 350.854 168.545C350.636 168.117 350.636 167.557 350.636 166.437V161.219C350.636 158.979 350.636 157.858 351.072 157.003C351.456 156.25 352.068 155.638 352.82 155.255C353.676 154.819 354.796 154.819 357.036 154.819H383.191C385.431 154.819 386.551 154.819 387.407 155.255C388.16 155.638 388.771 156.25 389.155 157.003C389.591 157.858 389.591 158.979 389.591 161.219V166.546C389.591 174.728 387.864 181.758 384.409 187.637C380.955 193.485 376.197 198.001 370.136 201.182C364.076 204.334 357.136 205.91 349.318 205.91C340.591 205.91 332.924 203.985 326.318 200.137C319.712 196.258 314.561 190.758 310.864 183.637C307.197 176.485 305.364 168.001 305.364 158.182C305.364 150.637 306.455 143.91 308.636 138.001C310.848 132.061 313.939 127.031 317.909 122.91C321.879 118.788 326.5 115.652 331.773 113.501C337.045 111.349 342.758 110.273 348.909 110.273C354.182 110.273 359.091 111.046 363.636 112.591C368.182 114.107 372.212 116.258 375.727 119.046C379.273 121.834 382.167 125.152 384.409 129.001C385.439 130.755 386.3 132.593 386.992 134.514C387.683 136.435 388.029 137.395 387.76 138.547C387.551 139.442 386.812 140.494 386.039 140.994C385.047 141.637 383.825 141.637 381.382 141.637H368.727Z" fill="#4F4F4F"/>
<path fill-rule="evenodd" clip-rule="evenodd" d="M454.44 102.13C456.123 99.7043 458.179 97.5901 460.848 95.9589C467.759 91.7347 478.173 91.7479 485.741 94.0019C491.804 95.8054 498.423 99.2587 503.583 103.321C498.411 106.717 490.757 109.449 482.322 111.797C475.875 113.592 469.632 113.913 463.186 112.202L463.519 112.47L463.249 112.347C459.735 110.877 456.3 109.378 453.144 107.746L454.406 102.222L454.44 102.13Z" fill="#5E990B"/>
<path fill-rule="evenodd" clip-rule="evenodd" d="M454.344 102.278L454.44 102.13L454.414 102.21L453.152 107.734C451.223 106.738 449.277 105.567 447.469 104.641L449.76 95.8149C450.177 94.2005 451.823 93.2334 453.437 93.6499C455.052 94.0664 456.019 95.7125 455.602 97.3269L454.344 102.278Z" fill="#7F573C"/>
<path fill-rule="evenodd" clip-rule="evenodd" d="M463.973 119.775C462.019 117.727 459.788 115.864 457.24 114.207C454.744 112.592 451.927 111.163 448.769 109.965C440.089 108.701 432.744 109.418 426.575 111.767C419.994 114.269 414.721 118.671 410.6 124.543C402.9 135.513 403.964 142.847 405.275 151.929C405.818 155.699 406.41 159.745 406.511 164.468C406.63 169.717 406.099 174.501 405.05 178.751C403.94 183.257 402.247 187.168 400.133 190.396C398.518 193.93 398.212 196.654 399.282 198.532C399.299 198.56 399.315 198.588 399.332 198.616C400.475 200.542 403.209 201.884 407.593 202.618C407.648 202.627 407.703 202.637 407.757 202.646C422.112 205.034 435.896 202.345 447.2 195.59C458.429 188.883 467.206 178.148 471.656 164.369C474.329 156.085 475.287 147.513 473.883 139.479C472.625 132.325 469.481 125.564 463.973 119.775ZM463.186 112.202C464.804 113.476 466.301 114.828 467.67 116.272C473.914 122.824 477.472 130.481 478.894 138.596C480.45 147.487 479.416 156.891 476.504 165.935C471.65 180.945 462.064 192.648 449.814 199.976C437.505 207.327 422.523 210.263 406.939 207.672C406.884 207.663 406.831 207.664 406.776 207.654C400.791 206.66 396.874 204.492 394.927 201.192C394.898 201.155 394.877 201.107 394.846 201.061C392.892 197.624 393.169 193.286 395.576 188.11C395.625 187.994 395.697 187.883 395.768 187.773C397.619 184.993 399.107 181.56 400.092 177.558C401.039 173.722 401.518 169.383 401.411 164.587C401.312 160.171 400.754 156.287 400.223 152.673C398.747 142.472 397.557 134.255 406.416 121.627C411.105 114.945 417.164 109.908 424.741 107.013C431.223 104.544 438.764 103.658 447.483 104.659C453.39 106.126 458.686 108.549 463.186 112.202Z" fill="#FFA712"/>
<path fill-rule="evenodd" clip-rule="evenodd" d="M465.303 118.569C463.273 116.462 460.948 114.556 458.296 112.858C455.696 111.202 452.757 109.746 449.466 108.524C440.404 107.257 432.739 108.01 426.283 110.453C419.405 113.05 413.888 117.6 409.562 123.654C401.481 134.97 402.568 142.511 403.913 151.85C404.468 155.724 405.073 159.883 405.163 164.747C405.271 170.146 404.695 175.067 403.589 179.445C402.402 184.084 400.619 188.12 398.409 191.443C396.71 195.08 396.379 197.883 397.492 199.816C397.509 199.844 397.525 199.872 397.542 199.9C398.729 201.881 401.575 203.251 406.149 203.986C406.204 203.996 406.259 204.005 406.324 204.012C421.308 206.425 435.701 203.604 447.527 196.621C459.279 189.686 468.47 178.608 473.17 164.415C475.992 155.888 477.022 147.057 475.58 138.798C474.293 131.459 471.035 124.51 465.303 118.569Z" fill="#F5AC31"/>
</svg>
