<svg xmlns="http://www.w3.org/2000/svg" xmlns:xlink="http://www.w3.org/1999/xlink" style="margin:auto;background:#fff;display:block;z-index:1;position:relative" width="1555" height="893" preserveAspectRatio="xMidYMid" viewBox="0 0 1555 893">
    <g transform="translate(777.5,446.5) scale(1,1) translate(-777.5,-446.5)">
        <g transform="translate(1602.1632835588111,-378.16328355881114) scale(120)" opacity="0.3">
            <path d="M8.688562500000002 0 C8.688562500000002 2.682375 12.246249760848345 8.452798656477814 10.34952420866308 10.349524208663079 S2.6823750000000004 8.688562500000002 5.320210127408363e-16 8.688562500000002 S-8.452798656477814 12.246249760848345 -10.349524208663079 10.34952420866308 S-8.688562500000002 2.682375000000001 -8.688562500000002 1.0640420254816726e-15 S-12.246249760848347 -8.452798656477812 -10.349524208663082 -10.349524208663079 S-2.6823750000000017 -8.688562500000002 -1.596063038222509e-15 -8.688562500000002 S8.45279865647781 -12.246249760848347 10.349524208663077 -10.349524208663082 S8.688562500000002 -2.682375000000002 8.688562500000002 -2.1280840509633452e-15" fill="#fb8402" stroke-width="0">
                <animateTransform attributeName="transform" type="rotate" dur="20s" repeatCount="indefinite" values="0;90"></animateTransform>
            </path>
        </g>
        <g transform="translate(1767.0959402705735,-543.0959402705734) scale(140)" opacity="0.3">
            <path d="M10.426275000000002 0 C10.426275000000002 3.21885 14.695499713018014 10.143358387773375 12.419429050395696 12.419429050395694 S3.2188500000000007 10.426275000000002 6.384252152890036e-16 10.426275000000002 S-10.143358387773375 14.695499713018014 -12.419429050395694 12.419429050395696 S-10.426275000000002 3.2188500000000015 -10.426275000000002 1.2768504305780072e-15 S-14.695499713018018 -10.143358387773375 -12.4194290503957 -12.419429050395694 S-3.218850000000002 -10.426275000000002 -1.915275645867011e-15 -10.426275000000002 S10.143358387773374 -14.695499713018018 12.419429050395692 -12.4194290503957 S10.426275000000002 -3.218850000000003 10.426275000000002 -2.5537008611560144e-15" fill="#fe9f00" stroke-width="0">
                <animateTransform attributeName="transform" type="rotate" dur="14s" repeatCount="indefinite" values="0;90"></animateTransform>
            </path>
        </g>
                <g transform="translate(2994.194906206085,-1770.1949062060844) scale(130)" opacity="0.3">
            <path d="M23.354856 0 C23.354856 7.210224 32.91791935716035 22.721122788612362 27.81952107288636 27.819521072886356 S7.210224000000002 23.354856 1.430072482247368e-15 23.354856 S-22.721122788612362 32.91791935716035 -27.819521072886356 27.81952107288636 S-23.354856 7.210224000000003 -23.354856 2.860144964494736e-15 S-32.91791935716036 -22.721122788612362 -27.819521072886364 -27.819521072886356 S-7.210224000000005 -23.354856 -4.290217446742103e-15 -23.354856 S22.721122788612355 -32.91791935716036 27.81952107288635 -27.819521072886364 S23.354856 -7.2102240000000055 23.354856 -5.720289928989472e-15" fill="#fed30c" stroke-width="0">
                <animateTransform attributeName="transform" type="rotate" dur="29s" repeatCount="indefinite" values="0;90"></animateTransform>
            </path>
        </g>
        <g transform="translate(2162.9343163788026,-938.9343163788026) scale(120)" opacity="0.3">
            <path d="M14.596785000000002 0 C14.596785000000002 4.506390000000001 20.57369959822522 14.200701742882726 17.387200670553977 17.387200670553973 S4.5063900000000015 14.596785000000002 8.93795301404605e-16 14.596785000000002 S-14.200701742882726 20.57369959822522 -17.387200670553973 17.387200670553977 S-14.596785000000002 4.506390000000002 -14.596785000000002 1.78759060280921e-15 S-20.57369959822522 -14.200701742882726 -17.387200670553977 -17.387200670553973 S-4.506390000000003 -14.596785000000002 -2.681385904213815e-15 -14.596785000000002 S14.200701742882723 -20.57369959822522 17.38720067055397 -17.387200670553977 S14.596785 -4.506390000000004 14.596785000000002 -3.57518120561842e-15" fill="#ffb900" stroke-width="0">
                <animateTransform attributeName="transform" type="rotate" dur="40s" repeatCount="indefinite" values="0;90"></animateTransform>
            </path>
        </g>
    </g>
</svg>